<svg preserveAspectRatio="none" overflow="visible" style="display: block;" width="71" height="71" viewBox="0 0 71 71" fill="none" xmlns="http://www.w3.org/2000/svg">
<g id="id-card">
<path id="Vector" d="M41.4 53.125V17.875C41.4 16.3169 40.7784 14.8225 39.6719 13.7207C38.5655 12.619 37.0648 12 35.5 12H11.9C10.3352 12 8.83453 12.619 7.72807 13.7207C6.62161 14.8225 6 16.3169 6 17.875V50.1875C6 50.9666 6.3108 51.7137 6.86403 52.2646C7.41727 52.8155 8.16761 53.125 8.95 53.125H14.85M14.85 53.125C14.85 56.3697 17.4915 59 20.75 59C24.0085 59 26.65 56.3697 26.65 53.125M14.85 53.125C14.85 49.8803 17.4915 47.25 20.75 47.25C24.0085 47.25 26.65 49.8803 26.65 53.125M26.65 53.125H44.35M44.35 53.125C44.35 56.3697 46.9915 59 50.25 59C53.5085 59 56.15 56.3697 56.15 53.125M44.35 53.125C44.35 49.8803 46.9915 47.25 50.25 47.25C53.5085 47.25 56.15 49.8803 56.15 53.125M56.15 53.125H62.05C62.8324 53.125 63.5827 52.8155 64.136 52.2646C64.6892 51.7137 65 50.9666 65 50.1875V39.4656C64.9988 38.799 64.7699 38.1526 64.351 37.6326L54.085 24.8545C53.8091 24.5105 53.4591 24.2326 53.0608 24.0414C52.6625 23.8502 52.2261 23.7506 51.784 23.75H41.4" stroke="black" stroke-width="2" stroke-linecap="round"/>
</g>
</svg>
